<svg width="405" height="99" viewBox="0 0 405 99" fill="none" xmlns="http://www.w3.org/2000/svg">
<path d="M80.808 57.9816C80.808 67.9396 74.2717 77.8038 61.3016 77.8038C49.3725 77.8038 42 70.0217 42 58.7155H43.2458C43.2458 69.0916 50.0978 76.5665 61.0968 76.5665C71.7886 76.5665 77.3862 69.9278 77.3862 63.1782C77.3862 46.1635 44.1844 56.019 44.1844 35.574C44.1844 27.5871 49.9954 20.428 61.0968 20.428C71.6777 20.428 76.3537 25.616 76.3537 32.0499C76.3537 34.2258 75.8332 35.6849 75.1079 36.8198L73.9645 36.1969C74.485 35.3692 75.1079 34.021 75.1079 32.0499C75.1079 26.2389 70.9609 21.6738 61.0968 21.6738C52.2737 21.6738 47.9219 26.1365 47.9219 31.3246C47.9219 46.2573 80.808 37.9547 80.808 57.9816ZM137.569 59.5346L138.713 59.7394C136.323 71.2589 127.407 78 114.641 78C100.323 78 87.8733 67.6239 87.8733 49.9862C87.8733 32.3485 101.159 20.5133 117.133 20.5133C132.074 20.5133 139.754 29.8484 136.537 39.6101H97.5496C97.0462 42.1444 96.7817 44.9091 96.7817 47.9127C96.7817 65.0299 104.666 75.8241 118.472 75.8241C127.091 75.8326 135.282 70.5336 137.569 59.5346ZM97.8227 38.3728H120.759C125.64 38.3728 129.685 37.2294 129.685 32.1438C129.685 26.2304 125.222 21.7676 117.022 21.7676C107.294 21.7676 100.34 27.7663 97.8227 38.3728ZM176.992 20.5218C169.312 20.5218 160.224 24.6262 156.965 33.3554V20.7266L148.457 22.8001V77.0699H156.965V40.4463C156.965 28.2015 167.238 22.4929 174.5 22.4929C185.806 22.4929 188.298 29.5497 188.298 41.897V77.0699H196.703V42.4175C196.711 27.1605 189.859 20.5218 176.992 20.5218ZM212.48 31.316C212.48 26.128 216.841 21.6652 225.655 21.6652C235.511 21.6652 239.666 26.2304 239.666 32.0414C239.666 34.0125 239.043 35.3607 238.523 36.1884L239.666 36.8113C240.392 35.6679 240.912 34.2173 240.912 32.0414C240.912 25.6075 236.245 20.4194 225.655 20.4194C214.554 20.4194 208.743 27.5786 208.743 35.5655C208.743 56.0105 241.945 46.1464 241.945 63.1697C241.945 69.9107 236.338 76.5579 225.655 76.5579C214.656 76.5579 207.804 69.083 207.804 58.7069H206.558C206.558 70.0131 213.922 77.7952 225.86 77.7952C238.83 77.7952 245.366 67.9396 245.366 57.9731C245.375 37.9547 212.48 46.2573 212.48 31.316ZM268.405 8.69511C268.405 5.89629 270.581 3.82278 273.286 3.82278C276.085 3.82278 278.159 5.89629 278.159 8.69511C278.159 11.3915 276.085 13.576 273.286 13.576C270.59 13.5674 268.405 11.3915 268.405 8.69511ZM270.18 9.25829C270.496 9.25829 270.743 9.0023 270.743 8.69511C270.743 7.25304 271.836 6.16081 273.278 6.16081C273.593 6.16081 273.849 5.90483 273.849 5.59764C273.849 5.29045 273.593 5.03446 273.278 5.03446C271.221 5.03446 269.608 6.6472 269.608 8.70364C269.608 9.01083 269.864 9.25829 270.18 9.25829ZM286.666 6.78372C286.666 2.88415 289.695 0 293.458 0C297.358 0 300.242 2.88415 300.242 6.78372C300.242 10.5382 297.349 13.576 293.458 13.576C289.704 13.5674 286.666 10.5382 286.666 6.78372ZM288.492 6.78372C288.492 7.14211 288.782 7.43223 289.14 7.43223C289.499 7.43223 289.789 7.14211 289.789 6.78372C289.789 4.69314 291.368 3.11454 293.458 3.11454C293.817 3.11454 294.107 2.82442 294.107 2.46603C294.107 2.10765 293.817 1.81752 293.458 1.81752C290.668 1.81752 288.492 3.99344 288.492 6.78372ZM302.128 59.5346L303.271 59.7394C300.882 71.2589 291.965 78 279.2 78C264.881 78.0085 252.423 67.6324 252.423 49.9948C252.423 32.3571 265.709 20.5218 281.683 20.5218C296.624 20.5218 304.304 29.8569 301.087 39.6186H262.108C261.605 42.1529 261.34 44.9176 261.34 47.9212C261.34 65.0384 269.225 75.8326 283.022 75.8326C291.649 75.8326 299.849 70.5336 302.128 59.5346ZM262.39 38.3728H285.326C290.207 38.3728 294.252 37.2294 294.252 32.1438C294.252 26.2304 289.789 21.7676 281.589 21.7676C271.853 21.7676 264.898 27.7663 262.39 38.3728ZM358.061 76.8651L357.959 77.7952C348.794 76.8651 342.292 72.2573 342.19 61.9495C339.536 70.4739 332.496 77.7952 319.876 77.7952C312.094 77.7952 306.078 73.6482 306.078 66.1733C306.078 57.5635 314.176 48.4332 342.19 47.3922V39.8149C342.19 30.2665 338.145 22.6977 326.728 22.4844C316.975 22.382 310.439 28.9183 310.439 37.3233C310.439 41.786 312.307 45.4211 314.279 47.4946L313.451 48.3223C311.173 46.2488 309.193 42.3065 309.193 37.3233C309.193 28.193 316.454 20.7181 329.117 20.6157C341.157 20.6157 350.697 26.9472 350.697 41.4703V59.5261C350.689 70.747 352.66 75.7217 358.061 76.8651ZM342.181 48.6465C320.183 48.6465 314.68 57.2563 314.68 64.5264C314.68 70.5422 318.519 75.0049 324.953 75.0049C333.665 75.0049 342.181 66.4975 342.181 53.7322V48.6465Z" fill="white"/>
</svg>
