<svg width="716" height="716" viewBox="0 0 716 716" fill="none" xmlns="http://www.w3.org/2000/svg">
<rect width="716" height="716" rx="358" fill="#721AD6"/>
<path d="M482 446.917C482 510.534 440.23 573.553 357.346 573.553C281.113 573.553 234 523.836 234 451.605H241.961C241.961 517.894 285.748 565.648 356.037 565.648C424.362 565.648 460.134 523.236 460.134 480.116C460.134 371.415 247.96 434.378 247.96 303.763C247.96 252.737 285.094 207 356.037 207C423.653 207 453.536 240.145 453.536 281.248C453.536 295.149 450.209 304.471 445.574 311.722L438.267 307.742C441.594 302.454 445.574 293.841 445.574 281.248C445.574 244.124 419.073 214.959 356.037 214.959C299.653 214.959 271.843 243.47 271.843 276.615C271.843 372.014 482 318.972 482 446.917Z" fill="white"/>
<path d="M482 446.917C482 510.534 440.23 573.553 357.346 573.553C281.113 573.553 234 523.836 234 451.605H241.961C241.961 517.894 285.748 565.648 356.037 565.648C424.362 565.648 460.134 523.236 460.134 480.116C460.134 371.415 247.96 434.378 247.96 303.763C247.96 252.737 285.094 207 356.037 207C423.653 207 453.536 240.145 453.536 281.248C453.536 295.149 450.209 304.471 445.574 311.722L438.267 307.742C441.594 302.454 445.574 293.841 445.574 281.248C445.574 244.124 419.073 214.959 356.037 214.959C299.653 214.959 271.843 243.47 271.843 276.615C271.843 372.014 482 318.972 482 446.917Z" fill="white"/>
<path d="M256 145.55C256 127.669 269.905 114.422 287.191 114.422C305.076 114.422 318.327 127.669 318.327 145.55C318.327 162.776 305.076 176.732 287.191 176.732C269.959 176.677 256 162.776 256 145.55ZM267.342 149.148C269.36 149.148 270.941 147.512 270.941 145.55C270.941 136.337 277.921 129.359 287.136 129.359C289.154 129.359 290.79 127.724 290.79 125.761C290.79 123.799 289.154 122.163 287.136 122.163C273.995 122.163 263.688 132.466 263.688 145.604C263.688 147.567 265.325 149.148 267.342 149.148ZM372.693 133.339C372.693 108.426 392.051 90 416.098 90C441.018 90 459.449 108.426 459.449 133.339C459.449 157.325 440.964 176.732 416.098 176.732C392.105 176.677 372.693 157.325 372.693 133.339ZM384.362 133.339C384.362 135.628 386.216 137.482 388.507 137.482C390.797 137.482 392.651 135.628 392.651 133.339C392.651 119.983 402.739 109.898 416.098 109.898C418.389 109.898 420.243 108.044 420.243 105.755C420.243 103.465 418.389 101.611 416.098 101.611C398.267 101.611 384.362 115.513 384.362 133.339Z" fill="white"/>
<path d="M256 145.55C256 127.669 269.905 114.422 287.191 114.422C305.076 114.422 318.327 127.669 318.327 145.55C318.327 162.776 305.076 176.732 287.191 176.732C269.959 176.677 256 162.776 256 145.55ZM267.342 149.148C269.36 149.148 270.941 147.512 270.941 145.55C270.941 136.337 277.921 129.359 287.136 129.359C289.154 129.359 290.79 127.724 290.79 125.761C290.79 123.799 289.154 122.163 287.136 122.163C273.995 122.163 263.688 132.466 263.688 145.604C263.688 147.567 265.325 149.148 267.342 149.148ZM372.693 133.339C372.693 108.426 392.051 90 416.098 90C441.018 90 459.449 108.426 459.449 133.339C459.449 157.325 440.964 176.732 416.098 176.732C392.105 176.677 372.693 157.325 372.693 133.339ZM384.362 133.339C384.362 135.628 386.216 137.482 388.507 137.482C390.797 137.482 392.651 135.628 392.651 133.339C392.651 119.983 402.739 109.898 416.098 109.898C418.389 109.898 420.243 108.044 420.243 105.755C420.243 103.465 418.389 101.611 416.098 101.611C398.267 101.611 384.362 115.513 384.362 133.339Z" fill="white"/>
</svg>
